<svg width="256" height="256" viewBox="0 0 256 256" fill="none" xmlns="http://www.w3.org/2000/svg">
<path d="M221.503 0H34.4968C15.4451 0 0 15.4444 0 34.4965V221.502C0 240.554 15.4445 255.999 34.4968 255.999H126.727L126.884 164.519H103.118C100.029 164.519 97.5222 162.021 97.5103 158.933L97.3963 129.445C97.3844 126.339 99.8988 123.815 103.004 123.815H126.728V95.3227C126.728 62.2572 146.922 44.2527 176.419 44.2527H200.624C203.72 44.2527 206.232 46.7633 206.232 49.8607V74.725C206.232 77.8212 203.722 80.3311 200.627 80.333L185.773 80.3399C169.731 80.3399 166.625 87.9625 166.625 99.1491V123.816H201.874C205.232 123.816 207.838 126.749 207.442 130.084L203.947 159.572C203.613 162.394 201.22 164.52 198.378 164.52H166.782L166.625 256H221.504C240.556 256 256 240.556 256 221.504V34.4965C255.999 15.4444 240.555 0 221.503 0Z" fill="#475993"/>
</svg>
