<svg width="256" height="256" viewBox="0 0 256 256" fill="none" xmlns="http://www.w3.org/2000/svg">
<path d="M128 256C198.692 256 256 198.692 256 128C256 57.3075 198.692 0 128 0C57.3075 0 0 57.3075 0 128C0 198.692 57.3075 256 128 256Z" fill="#29578B"/>
<path d="M255.049 144.489L208.119 97.5591C196.809 84.7696 169.328 68.8096 140.578 96.9246L126.837 83.7126H92.6969V101.047L81.5984 89.4206L59.6134 85.8271L48.9379 101.576L74.6224 128.635L77.7934 153.58L59.0849 134.448L43.3359 156.116L142.586 255.366C201.037 248.707 247.544 202.834 255.048 144.595V144.489H255.049V144.489Z" fill="#1d4571"/>
<path d="M174.084 80.5415V80.647C151.254 80.647 131.488 99.0385 131.488 123.243C131.488 141.212 142.798 157.278 159.71 163.303C164.361 164.888 169.117 165.734 174.085 165.734C196.915 165.734 216.681 147.342 216.681 123.137C216.681 99.1445 197.127 80.5415 174.084 80.5415ZM205.899 102.21C209.281 107.495 211.501 113.731 211.924 120.39H204.314C203.997 114.577 202.411 109.186 200.086 104.218H199.98C201.989 103.584 203.997 102.95 205.899 102.21ZM202.834 98.0875C201.037 98.722 199.241 99.25 197.443 99.673C193.638 93.8595 188.459 89.103 182.434 85.721C190.467 87.6235 197.655 91.957 202.834 98.0875ZM186.134 125.569H199.875C199.558 130.22 198.395 134.659 196.598 138.781C192.899 137.83 189.094 137.196 185.183 136.667C185.711 133.074 186.028 129.375 186.134 125.569ZM184.865 107.283C188.565 106.86 192.158 106.226 195.646 105.381C197.972 109.926 199.452 114.999 199.874 120.39H186.133C186.028 115.845 185.605 111.511 184.865 107.283ZM192.898 100.73C189.939 101.365 186.979 101.787 183.914 102.104C182.857 97.559 181.588 93.2255 179.897 89.209C185.077 91.957 189.516 95.9735 192.898 100.73ZM179.792 107.601C180.426 111.723 180.849 115.951 180.954 120.285H167.742C167.848 115.951 168.271 111.723 168.905 107.707C170.49 107.812 172.076 107.812 173.661 107.812C175.669 107.812 177.678 107.706 179.686 107.601V107.601L179.792 107.601ZM155.693 106.227C158.442 106.755 161.19 107.178 164.043 107.495C163.409 111.617 162.986 115.951 162.775 120.496H151.888C152.205 115.423 153.579 110.666 155.694 106.333L155.693 106.227ZM162.775 125.675C162.88 129.375 163.198 133.074 163.726 136.668C160.66 136.985 157.701 137.408 154.847 138.042C153.262 134.237 152.205 130.009 151.888 125.676L162.775 125.675ZM164.466 141.74C165.311 146.179 166.58 150.408 168.059 154.318C163.726 151.253 159.921 147.236 157.173 142.691C159.604 142.269 162.035 141.952 164.466 141.74ZM164.994 102.421C162.774 102.21 160.555 101.893 158.441 101.576C161.084 97.7705 164.36 94.388 168.165 91.7455C166.897 95.1275 165.84 98.7215 164.994 102.421ZM169.857 102.527C169.865 102.527 169.873 102.527 169.881 102.527C170.938 97.493 172.512 92.7725 174.296 88.469C176.093 92.8025 177.678 97.559 178.735 102.527C177.044 102.632 175.353 102.632 173.662 102.632C172.401 102.632 171.141 102.528 169.88 102.527C169.873 102.563 169.864 102.597 169.857 102.633V102.527C169.857 102.527 169.857 102.527 169.857 102.527ZM168.06 85.2985C168.588 85.404 169.222 85.51 169.751 85.6155C163.198 89.2085 157.701 94.388 153.79 100.625C150.725 99.99 147.766 99.1445 145.017 98.1935C150.831 91.4285 158.864 86.6725 168.06 85.2985ZM141.952 102.316C144.912 103.478 148.082 104.43 151.36 105.275C149.246 109.926 147.872 114.999 147.554 120.39H135.928C136.35 113.731 138.57 107.6 141.952 102.316ZM135.928 125.569H147.554C147.871 130.22 148.928 134.765 150.62 138.887L150.514 138.992C147.132 139.838 143.961 140.894 140.895 142.057C138.042 137.196 136.245 131.594 135.928 125.569ZM167.954 160.766C158.124 159.181 149.457 153.896 143.644 146.286C146.498 145.229 149.563 144.383 152.734 143.643C156.645 150.725 162.564 156.538 169.645 160.449C169.117 160.555 168.482 160.661 167.954 160.766ZM174.19 157.279C172.089 152.341 170.511 146.985 169.35 141.212C169.343 141.212 169.335 141.212 169.328 141.213H169.328H169.328V141.107C169.335 141.142 169.343 141.177 169.35 141.212C170.718 141.108 172.189 141.107 173.556 141.107C175.353 141.107 177.255 141.213 179.052 141.213C177.89 146.92 176.304 152.311 174.19 157.279ZM173.556 135.928C171.865 135.928 170.174 135.928 168.483 136.033C168.06 132.651 167.743 129.057 167.637 125.464V125.463V125.464H180.744C180.638 129.163 180.427 132.651 179.898 136.139C177.784 136.033 175.67 135.928 173.556 135.928ZM184.443 141.846C187.825 142.163 191.102 142.798 194.167 143.432C190.679 148.929 185.711 153.579 180.004 156.644C181.906 151.993 183.386 147.025 184.443 141.846ZM182.541 160.238C189.199 156.538 194.801 151.042 198.607 144.489C200.509 145.017 202.412 145.652 204.209 146.286C198.924 153.156 191.313 158.23 182.541 160.238ZM200.932 139.944C202.834 135.505 204.103 130.643 204.42 125.569H212.03C211.607 131.593 209.81 137.195 206.956 142.057C204.948 141.318 202.94 140.578 200.932 139.944Z" fill="white"/>
<path d="M176.199 104.957C186.785 104.957 195.437 113.609 195.437 124.195C195.437 134.782 186.785 143.433 176.199 143.433C165.612 143.433 156.961 134.782 156.961 124.195C156.961 113.609 165.612 104.957 176.199 104.957Z" fill="#091522"/>
<path d="M219.534 185.183L199.029 149.563C198.395 148.612 197.127 148.295 196.175 148.823L195.33 149.352L192.158 143.961V143.961H192.052C196.809 140.156 200.191 134.766 201.248 128.318C203.573 114.578 194.272 101.471 180.425 99.1456C166.685 96.8201 153.578 106.122 151.253 119.968C148.927 133.709 158.229 146.815 172.075 149.141C176.726 149.881 181.483 149.352 185.605 147.661L188.776 153.052L187.93 153.58C186.978 154.214 186.662 155.483 187.19 156.434L207.695 192.054C208.329 193.006 209.598 193.323 210.55 192.794L218.794 188.038C219.746 187.403 220.063 186.134 219.534 185.183ZM176.625 142.125C166.512 142.125 158.313 133.926 158.313 123.813C158.313 113.699 166.512 105.5 176.625 105.5C186.739 105.5 194.938 113.699 194.938 123.813C194.938 133.926 186.739 142.125 176.625 142.125Z" fill="white"/>
<path d="M164.571 120.919C164.465 121.659 163.831 122.081 163.197 121.976C162.668 121.87 162.246 121.341 162.246 120.813C162.246 120.602 162.351 120.39 162.351 120.073C163.62 112.358 171.019 107.072 178.734 108.341C178.946 108.341 179.157 108.447 179.369 108.447H179.474C180.214 108.552 180.637 109.187 180.531 109.927C180.426 110.561 179.791 111.089 179.051 110.984C178.84 110.878 178.523 110.878 178.311 110.878C171.969 109.821 165.839 114.155 164.782 120.497C164.782 120.602 164.782 120.708 164.676 120.92H164.57L164.571 120.919Z" fill="#F7F7F8"/>
<path d="M196.281 148.717L188.777 153.05L187.931 153.579C186.98 154.107 186.663 155.376 187.191 156.433L207.697 192.053C208.225 193.004 209.494 193.321 210.551 192.793L218.795 188.036C219.746 187.508 220.064 186.239 219.535 185.182L199.03 149.562C198.502 148.611 197.339 148.294 196.388 148.717H196.281V148.717Z" fill="#E84F4F"/>
<path d="M195.224 149.351L196.069 148.822C197.02 148.294 198.289 148.611 198.923 149.562L219.429 185.182C219.957 186.133 219.64 187.402 218.689 188.036L214.567 190.467L192.265 151.042L195.224 149.351Z" fill="#C94545"/>
<path d="M84.4525 107.389V104.218C84.4525 97.876 83.818 93.3315 82.55 90.6885C81.2815 88.046 78.8505 85.8265 75.0455 84.0295C71.24 82.3385 66.6955 81.387 61.199 81.387C56.2315 81.387 52.109 82.127 48.515 83.818C45.027 85.4035 42.4905 87.6235 40.905 90.477C39.3195 93.3305 38.5795 97.77 38.5795 103.901C38.5795 108.129 39.108 111.617 40.2705 114.365C41.3275 117.113 42.807 119.227 44.3925 120.812C46.0835 122.398 49.466 124.829 54.6455 128.317C59.8245 131.699 62.9955 134.13 64.3695 135.61C65.638 137.09 66.272 140.155 66.272 144.805C66.272 146.919 65.955 148.505 65.215 149.667C64.5805 150.724 63.524 151.253 62.1495 151.253C60.7755 151.253 59.824 150.83 59.2955 149.984C58.767 149.139 58.45 147.236 58.45 144.171V134.447H39.108V139.732C39.108 145.756 39.7425 150.407 40.905 153.578C42.1735 156.855 44.7105 159.497 48.6205 161.611C52.5305 163.725 57.288 164.782 62.89 164.782C67.9635 164.782 72.403 163.831 76.2075 162.034C80.013 160.237 82.5495 157.912 83.923 155.27C85.297 152.522 85.931 148.4 85.931 142.692C85.931 134.87 84.7685 129.162 82.3375 125.674C79.9065 122.186 74.093 117.641 64.8975 112.145C61.7265 110.242 59.7185 108.551 58.9785 107.283C58.2385 105.909 57.9215 103.901 57.9215 101.258C57.9215 99.1445 58.2385 97.665 58.8725 96.6075C59.5065 95.55 60.458 95.022 61.7265 95.022C62.889 95.022 63.7345 95.445 64.1575 96.1845C64.686 96.9245 64.8975 98.721 64.8975 101.469V107.388H84.2405H84.4525V107.389ZM92.8025 83.0785V163.091H128.951V147.131H113.625V129.479H126.626V114.258H113.625V98.9325H127.471V82.972H92.8025V83.0785V83.0785Z" fill="white"/>
</svg>
