<svg width="256" height="240" viewBox="0 0 256 240" fill="none" xmlns="http://www.w3.org/2000/svg">
<path d="M115.155 77.3197H119.423C121.778 77.3197 123.691 75.4076 123.691 73.0518C123.691 70.6961 121.778 68.7839 119.423 68.7839H115.155C112.799 68.7839 110.887 70.6961 110.887 73.0518C110.887 75.4076 112.799 77.3197 115.155 77.3197Z" fill="black"/>
<path d="M51.1341 43.1751H55.402C57.7577 43.1751 59.6699 41.2629 59.6699 38.9072C59.6699 36.5514 57.7577 34.6393 55.402 34.6393H51.1341C48.7783 34.6393 46.8662 36.5514 46.8662 38.9072C46.8662 41.2629 48.7783 43.1751 51.1341 43.1751Z" fill="black"/>
<path d="M93.9809 84.8015C94.7962 93.0047 98.3599 100.226 98.5309 100.568C102.402 108.306 108.249 120 127.959 120C147.669 120 153.516 108.306 157.383 100.568C157.558 100.226 161.122 93.0047 161.937 84.8015C164.579 83.3506 166.371 80.5377 166.371 77.3196V68.7833C166.371 65.6293 164.651 62.8719 162.104 61.3955V60.2476C162.104 46.1245 150.618 34.6393 136.495 34.6393H119.423C105.3 34.6393 93.8149 46.1245 93.8149 60.2476V61.3955C91.2671 62.8724 89.547 65.6293 89.547 68.7833V77.3196C89.5465 80.5377 91.3391 83.3501 93.9809 84.8015ZM98.0828 68.7833C100.439 68.7833 102.351 66.8712 102.351 64.5155V60.2476C102.351 50.832 110.008 43.1755 119.423 43.1755H136.495C145.91 43.1755 153.567 50.8325 153.567 60.2476V64.5155C153.567 66.8712 155.479 68.7833 157.835 68.7833V77.3196C155.479 77.3196 153.567 79.2317 153.567 81.5875C153.567 88.9714 149.785 96.6794 149.747 96.7519C145.304 105.638 141.386 111.464 127.958 111.464C114.531 111.464 110.609 105.638 106.17 96.7559C106.131 96.6789 102.35 88.9709 102.35 81.5875C102.35 79.2317 100.438 77.3196 98.0823 77.3196V68.7833H98.0828Z" fill="black"/>
<path d="M59.7298 98.0109L56.1832 119.274C55.7946 121.601 57.3611 123.798 59.6873 124.187C59.9264 124.225 60.161 124.242 60.3961 124.242C62.4447 124.242 64.2543 122.765 64.5999 120.679L67.5494 103.022C73.7084 103.163 79.4017 103.696 84.5279 104.618C86.8581 105.041 89.0649 103.487 89.483 101.169C89.9011 98.8477 88.3561 96.6285 86.0389 96.2143C79.4957 95.0405 72.1464 94.4473 64.1908 94.4473C62.0391 94.4688 60.084 95.8727 59.7298 98.0109Z" fill="black"/>
<path d="M196.248 43.1751H200.516C202.871 43.1751 204.783 41.2629 204.783 38.9072C204.783 36.5514 202.871 34.6393 200.516 34.6393H196.248C193.892 34.6393 191.98 36.5514 191.98 38.9072C191.98 41.2629 193.892 43.1751 196.248 43.1751Z" fill="black"/>
<path d="M136.495 77.3197H140.763C143.119 77.3197 145.031 75.4076 145.031 73.0518C145.031 70.6961 143.119 68.7839 140.763 68.7839H136.495C134.139 68.7839 132.227 70.6961 132.227 73.0518C132.227 75.4076 134.139 77.3197 136.495 77.3197Z" fill="black"/>
<path d="M217.588 43.1751H221.856C224.212 43.1751 226.124 41.2629 226.124 38.9072C226.124 36.5514 224.212 34.6393 221.856 34.6393H217.588C215.232 34.6393 213.32 36.5514 213.32 38.9072C213.32 41.2629 215.232 43.1751 217.588 43.1751Z" fill="black"/>
<path d="M175.074 50.657C175.889 58.8602 179.453 66.0815 179.623 66.4231C183.494 74.1611 189.341 85.8554 209.051 85.8554C228.761 85.8554 234.609 74.1611 238.479 66.4231C238.65 66.0815 242.214 58.8602 243.029 50.657C245.671 49.206 247.464 46.3931 247.464 43.1751V34.6388C247.464 31.4848 245.744 28.7274 243.196 27.2509V26.1031C243.196 11.98 231.711 0.494751 217.587 0.494751H200.515C186.392 0.494751 174.907 11.98 174.907 26.1031V27.2509C172.359 28.7279 170.639 31.4848 170.639 34.6388V43.1751C170.639 46.3931 172.432 49.2055 175.074 50.657ZM179.176 34.6388C181.531 34.6388 183.443 32.7267 183.443 30.3709V26.1031C183.443 16.6875 191.1 9.03102 200.515 9.03102H217.587C227.003 9.03102 234.66 16.688 234.66 26.1031V30.3709C234.66 32.7267 236.572 34.6388 238.927 34.6388V43.1751C236.572 43.1751 234.66 45.0872 234.66 47.443C234.66 54.8269 230.878 62.5349 230.84 62.6074C226.397 71.4933 222.479 77.3192 209.051 77.3192C195.62 77.3192 191.702 71.4933 187.263 62.6114C187.224 62.5344 183.443 54.8264 183.443 47.443C183.443 45.0872 181.531 43.1751 179.175 43.1751V34.6388H179.176Z" fill="black"/>
<path d="M166.358 101.165C166.773 103.483 168.966 105.023 171.314 104.617C176.448 103.696 182.163 103.162 188.339 103.021L191.288 120.678C191.634 122.765 193.443 124.242 195.492 124.242C195.726 124.242 195.962 124.225 196.201 124.186C198.527 123.798 200.093 121.595 199.705 119.274L196.158 98.0103C195.795 95.8721 193.947 94.4637 191.694 94.4467C183.721 94.4467 176.359 95.0398 169.807 96.2137C167.49 96.6279 165.945 98.8476 166.358 101.165Z" fill="black"/>
<path d="M25.4658 98.0154C25.1116 95.8687 23.131 94.4643 20.9888 94.4473C14.8473 94.4473 9.03393 94.8059 3.7117 95.5056C1.37294 95.8127 -0.27059 97.9599 0.0370101 100.294C0.348611 102.633 2.49981 104.268 4.82556 103.969C8.81636 103.444 13.1097 103.124 17.6467 103.022L29.8532 176.189C30.1988 178.276 32.0084 179.752 34.057 179.752C34.2876 179.752 34.5267 179.735 34.7658 179.693C37.0875 179.309 38.658 177.107 38.2699 174.78L25.4658 98.0154Z" fill="black"/>
<path d="M149.577 128.592C147.387 128.596 145.373 130.077 145.07 132.279L132.265 226.125C131.95 228.46 133.58 230.611 135.919 230.931C136.116 230.957 136.307 230.97 136.5 230.97C138.604 230.97 140.431 229.42 140.725 227.278L153.022 137.167C171.212 137.611 185.254 141.555 191.874 148.157C194.819 151.098 196.249 154.453 196.249 158.413V226.701C196.249 229.057 198.161 230.969 200.517 230.969C202.872 230.969 204.784 229.057 204.784 226.701V158.412C204.784 152.16 202.467 146.675 197.9 142.117C189.158 133.389 172.005 128.592 149.577 128.592Z" fill="black"/>
<path d="M136.495 137.072C136.495 132.365 132.667 128.536 127.959 128.536C123.251 128.536 119.423 132.364 119.423 137.072C119.423 140.218 121.151 142.94 123.691 144.421V175.484C123.691 177.84 125.603 179.752 127.958 179.752C130.314 179.752 132.226 177.84 132.226 175.484V144.421C134.767 142.941 136.495 140.218 136.495 137.072Z" fill="black"/>
<path d="M174.908 179.753C172.552 179.753 170.64 181.665 170.64 184.021V235.237C170.64 237.593 172.552 239.505 174.908 239.505C177.263 239.505 179.176 237.593 179.176 235.237V184.021C179.176 181.665 177.263 179.753 174.908 179.753Z" fill="black"/>
<path d="M221.873 102.928C221.873 98.2205 218.04 94.3917 213.328 94.3917C208.616 94.3917 204.783 98.22 204.783 102.928C204.783 106.074 206.512 108.792 209.051 110.273V141.34C209.051 143.696 210.963 145.608 213.319 145.608C215.675 145.608 217.587 143.696 217.587 141.34V110.286C220.136 108.805 221.873 106.078 221.873 102.928Z" fill="black"/>
<path d="M252.291 95.5056C246.961 94.8059 241.139 94.4473 234.98 94.4473C232.773 94.4473 230.857 95.8687 230.499 98.0109L217.673 174.78C217.284 177.107 218.851 179.309 221.177 179.693C221.416 179.735 221.651 179.752 221.886 179.752C223.935 179.752 225.744 178.275 226.09 176.189L238.318 103.022C242.867 103.124 247.178 103.444 251.173 103.969C253.491 104.267 255.654 102.633 255.961 100.294C256.274 97.9554 254.626 95.8132 252.291 95.5056Z" fill="black"/>
<path d="M29.7936 43.1751H34.0615C36.4173 43.1751 38.3294 41.2629 38.3294 38.9072C38.3294 36.5514 36.4173 34.6393 34.0615 34.6393H29.7936C27.4379 34.6393 25.5258 36.5514 25.5258 38.9072C25.5258 41.2629 27.4379 43.1751 29.7936 43.1751Z" fill="black"/>
<path d="M42.5978 94.3917C37.8903 94.3917 34.0615 98.22 34.0615 102.928C34.0615 106.074 35.7901 108.796 38.3294 110.277V141.34C38.3294 143.696 40.2415 145.608 42.5973 145.608C44.9531 145.608 46.8652 143.696 46.8652 141.34V110.277C49.4045 108.796 51.1331 106.074 51.1331 102.928C51.1341 98.22 47.3058 94.3917 42.5978 94.3917Z" fill="black"/>
<path d="M8.61979 50.657C9.43055 58.8602 12.9987 66.0815 13.1693 66.4231C17.0405 74.1611 22.8874 85.8554 42.5973 85.8554C62.3072 85.8554 68.1546 74.1611 72.0213 66.4231C72.1964 66.0815 75.76 58.8602 76.5753 50.657C79.2172 49.206 81.0098 46.3931 81.0098 43.1751V34.6388C81.0098 31.4848 79.2897 28.7274 76.7419 27.2509V26.1031C76.7419 11.98 65.2566 0.494751 51.1336 0.494751H34.062C19.939 0.494751 8.45374 11.98 8.45374 26.1031V27.2509C5.90591 28.7279 4.18585 31.4848 4.18585 34.6388V43.1751C4.18535 46.3931 5.97793 49.2055 8.61979 50.657ZM12.7216 34.6388C15.0774 34.6388 16.9895 32.7267 16.9895 30.3709V26.1031C16.9895 16.6875 24.6465 9.03102 34.0615 9.03102H51.1336C60.5491 9.03102 68.2056 16.688 68.2056 26.1031V30.3709C68.2056 32.7267 70.1177 34.6388 72.4735 34.6388V43.1751C70.1177 43.1751 68.2056 45.0872 68.2056 47.443C68.2056 54.8269 64.4239 62.5349 64.3859 62.6074C59.9429 71.4933 56.0247 77.3192 42.5973 77.3192C29.1659 77.3192 25.2522 71.4933 20.8087 62.6114C20.7702 62.5344 16.989 54.8264 16.989 47.443C16.989 45.0872 15.0769 43.1751 12.7211 43.1751V34.6388H12.7216Z" fill="black"/>
<path d="M81.0103 179.753C78.6545 179.753 76.7424 181.665 76.7424 184.021V235.237C76.7424 237.593 78.6545 239.505 81.0103 239.505C83.366 239.505 85.2781 237.593 85.2781 235.237V184.021C85.2786 181.665 83.3665 179.753 81.0103 179.753Z" fill="black"/>
<path d="M110.848 132.283C110.558 130.171 108.757 128.596 106.628 128.592C84.2033 128.622 66.7982 133.351 58.0188 142.117C53.4478 146.676 51.1346 152.16 51.1346 158.412V226.701C51.1346 229.057 53.0467 230.969 55.4025 230.969C57.7582 230.969 59.6704 229.057 59.6704 226.701V158.412C59.6704 154.452 61.1003 151.097 64.0493 148.156C70.6649 141.553 84.7065 137.61 102.897 137.17L115.193 227.277C115.488 229.42 117.315 230.969 119.414 230.969C119.611 230.969 119.803 230.956 119.999 230.93C122.338 230.61 123.968 228.459 123.653 226.124L110.848 132.283Z" fill="black"/>
</svg>
