<svg width="196" height="50" viewBox="0 0 196 50" fill="none" xmlns="http://www.w3.org/2000/svg">
<g clip-path="url(#clip0_238_5)">
<path d="M177.53 18.3464C178.135 16.7779 175.136 14.1467 170.832 12.4695C166.528 10.7922 162.548 10.7041 161.943 12.2727C161.338 13.8412 164.337 16.4724 168.641 18.1497C172.945 19.8269 176.925 19.915 177.53 18.3464Z" fill="#0077C8"/>
<path d="M175.072 33.0136C174.766 32.8903 156.153 25.6418 150.536 16.3503C150.536 16.3503 144.956 8.41187 156.54 7.07214C156.54 7.07214 161.282 6.58557 167.267 8.85512C166.709 8.74847 146.55 5.31583 153.228 15.3605C153.228 15.3605 157.664 22.3391 173.394 28.2412L175.072 33.0136Z" fill="#0077C8"/>
<path d="M158.911 7.10186C158.911 7.10186 146.68 5.34555 145.864 13.7905C145.048 22.2355 163.284 34.8696 177.595 39.7853L181.086 49.9833C181.086 49.9833 141.099 33.18 141.554 15.3036C141.554 15.3036 140.967 4.739 158.911 7.10186Z" fill="#0077C8"/>
<path d="M171.613 24.292C171.613 24.292 189.02 28.4811 188.954 21.5892C188.888 14.6972 171.547 7.25873 166.504 5.98232L165.698 3.95605C165.698 3.95605 189.627 11.3879 191.229 21.5892C191.229 21.5892 192.571 26.5882 182.087 26.6548C178.51 26.3204 174.99 25.5263 171.613 24.292Z" fill="#0077C8"/>
<path d="M174.853 25.2849C174.853 25.2849 195.99 30.9971 195.987 22.3755C196.614 12.5308 171.64 2.37952 164.512 0L165.38 2.33287C165.38 2.33287 193.749 11.1344 193.212 22.1622C193.212 22.1722 193.703 29.0142 174.853 25.2849Z" fill="#0077C8"/>
<path d="M4.08112 16.4435V22.2424H12.8874V16.4435C12.8874 15.6148 13.0731 14.9938 13.4444 14.5806C13.6268 14.3767 13.8512 14.2153 14.1021 14.1077C14.3529 14 14.6241 13.9487 14.8967 13.9574C15.1746 13.9439 15.4522 13.9904 15.7108 14.0939C15.9693 14.1974 16.2027 14.3554 16.3954 14.5572C16.7756 14.966 16.9656 15.5893 16.9656 16.4269V32.3903C16.9656 33.228 16.7733 33.8545 16.3887 34.27C16.1986 34.4743 15.967 34.6352 15.7095 34.7415C15.4521 34.8479 15.1748 34.8974 14.8967 34.8865C14.6207 34.8977 14.3457 34.847 14.0916 34.7381C13.8375 34.6291 13.6108 34.4647 13.4279 34.2566C13.0242 33.7215 12.8285 33.0568 12.8775 32.387V25.585H4.08112V32.3903C4.08112 33.228 3.88881 33.8545 3.5042 34.27C3.31482 34.4735 3.08425 34.6338 2.82801 34.7401C2.57178 34.8465 2.29584 34.8964 2.0188 34.8865C1.7428 34.8977 1.46778 34.847 1.21372 34.7381C0.95965 34.6291 0.732914 34.4647 0.549976 34.2566C0.14628 33.7215 -0.0494101 33.0568 -0.000418133 32.387V16.4435C-0.000418133 15.6148 0.180836 14.9938 0.543345 14.5806C0.727776 14.373 0.955894 14.2094 1.21112 14.1016C1.46634 13.9938 1.74225 13.9445 2.0188 13.9574C2.29565 13.9448 2.57198 13.9918 2.82929 14.0953C3.0866 14.1987 3.31896 14.3562 3.51083 14.5572C3.89102 14.9772 4.08112 15.6059 4.08112 16.4435Z" fill="#0077C8"/>
<path d="M30.2117 13.9574C32.0834 13.9017 33.9372 14.3383 35.5896 15.2238C37.0668 16.0549 38.2535 17.3233 38.9881 18.8564C39.7916 20.5853 40.1865 22.4775 40.142 24.3853C40.1592 25.8321 39.9454 27.2723 39.5087 28.6511C39.1159 29.8833 38.4698 31.0188 37.6121 31.9838C36.756 32.9315 35.694 33.6682 34.5087 34.1367C33.1649 34.6561 31.7341 34.9107 30.2946 34.8865C28.8481 34.9102 27.411 34.6498 26.0638 34.12C24.8736 33.6487 23.8064 32.91 22.9438 31.9604C22.0858 30.988 21.4418 29.8444 21.0539 28.6044C20.6181 27.2345 20.4021 25.8035 20.414 24.3653C20.397 22.9118 20.6211 21.4656 21.0771 20.0861C21.4808 18.8575 22.1385 17.7286 23.0068 16.7735C23.863 15.8524 24.9147 15.137 26.0837 14.6805C27.4014 14.1779 28.8024 13.9324 30.2117 13.9574ZM36.0107 24.3686C36.0421 23.0486 35.7993 21.7365 35.2978 20.516C34.8843 19.5042 34.1728 18.6436 33.2587 18.0499C32.3427 17.487 31.2851 17.2001 30.2117 17.2234C29.4338 17.2155 28.6632 17.3734 27.9504 17.6866C27.2622 17.9896 26.6512 18.4453 26.1633 19.0197C25.6241 19.6851 25.2228 20.4522 24.9829 21.2759C24.6817 22.2761 24.5352 23.317 24.5486 24.3619C24.5358 25.4178 24.6822 26.4695 24.9829 27.4813C25.2276 28.3289 25.6442 29.1163 26.2064 29.7942C26.7015 30.3821 27.3211 30.8513 28.02 31.1672C28.8413 31.5165 29.7324 31.6682 30.6223 31.6104C31.5121 31.5525 32.3763 31.2867 33.146 30.834C34.0695 30.2537 34.7975 29.407 35.2348 28.4045C35.7855 27.133 36.0494 25.7547 36.0074 24.3686H36.0107Z" fill="#0077C8"/>
<path d="M47.6318 16.4436V31.1773H55.901C56.4497 31.1402 56.9921 31.3128 57.4196 31.6605C57.5909 31.8121 57.7272 31.9995 57.8188 32.2097C57.9104 32.4198 57.9552 32.6476 57.9501 32.8769C57.9583 33.1048 57.9158 33.3316 57.8257 33.5409C57.7357 33.7502 57.6003 33.9366 57.4295 34.0867C56.9949 34.4239 56.452 34.5888 55.9043 34.5499H46.0635C45.1794 34.5499 44.5406 34.3522 44.1471 33.9567C43.7536 33.5612 43.5591 32.9214 43.5636 32.0371V16.4436C43.5636 15.6148 43.7492 14.9938 44.1206 14.5806C44.304 14.3754 44.53 14.2132 44.7827 14.1055C45.0354 13.9978 45.3085 13.9473 45.5828 13.9574C45.8569 13.9472 46.13 13.9954 46.3843 14.0988C46.6386 14.2022 46.8682 14.3584 47.0582 14.5573C47.4406 14.9772 47.6318 15.6059 47.6318 16.4436Z" fill="#0077C8"/>
<path d="M60.7918 32.3904V16.4436C60.7918 15.6149 60.9797 14.9939 61.3555 14.5806C61.5385 14.3767 61.7635 14.2152 62.0149 14.1076C62.2662 14 62.5379 13.9487 62.811 13.9574C63.0873 13.9453 63.363 13.9926 63.6197 14.096C63.8764 14.1995 64.1083 14.3567 64.2998 14.5573C64.6799 14.9661 64.87 15.5893 64.87 16.4269V32.3904C64.87 33.228 64.6799 33.8545 64.2998 34.27C64.1102 34.4753 63.8787 34.637 63.6212 34.744C63.3637 34.851 63.0862 34.9008 62.8077 34.8899C62.5352 34.897 62.2644 34.8443 62.0142 34.7355C61.7639 34.6268 61.5403 34.4645 61.3588 34.26C60.9435 33.7302 60.7412 33.063 60.7918 32.3904Z" fill="#0077C8"/>
<path d="M84.7374 28.4711C84.7529 29.64 84.4254 30.7876 83.7958 31.7705C83.1192 32.7882 82.1616 33.5852 81.0405 34.0633C79.6795 34.6473 78.2095 34.9303 76.7302 34.8932C74.7408 34.8932 73.1018 34.5155 71.8131 33.7601C70.9147 33.2224 70.1575 32.4761 69.6049 31.5838C69.0726 30.8038 68.7746 29.8865 68.7462 28.941C68.7439 28.7005 68.7898 28.4619 68.8811 28.2396C68.9724 28.0172 69.1074 27.8156 69.2778 27.6468C69.4483 27.4779 69.6508 27.3453 69.8733 27.2567C70.0959 27.1682 70.3338 27.1256 70.5731 27.1314C70.9743 27.1267 71.3617 27.2784 71.654 27.5546C71.9967 27.9019 72.2573 28.3222 72.4166 28.7844C72.6353 29.3492 72.9155 29.8879 73.2521 30.3907C73.5763 30.8465 74.0081 31.2141 74.5087 31.4605C75.1738 31.7693 75.902 31.9155 76.6341 31.8871C77.6826 31.9351 78.7178 31.6366 79.5816 31.0373C79.9293 30.8047 80.2145 30.4897 80.4123 30.12C80.6101 29.7503 80.7142 29.3374 80.7156 28.9177C80.728 28.6178 80.6804 28.3184 80.5756 28.0373C80.4708 27.7563 80.311 27.4992 80.1055 27.2813C79.6624 26.8405 79.1215 26.5115 78.5273 26.3215C77.8818 26.0994 77.0187 25.865 75.9378 25.6183C74.6851 25.3454 73.4631 24.9457 72.2906 24.4253C71.3709 24.0144 70.5717 23.3729 69.9696 22.5623C69.3756 21.7037 69.0743 20.6747 69.1109 19.6295C69.0941 18.5686 69.4108 17.5295 70.0161 16.6601C70.6763 15.7495 71.5883 15.0542 72.6387 14.6605C73.928 14.1702 75.299 13.9337 76.6772 13.964C77.7635 13.94 78.8464 14.0942 79.8834 14.4206C80.7024 14.6838 81.4641 15.1011 82.128 15.6503C82.668 16.0919 83.1126 16.6396 83.4344 17.26C83.6994 17.7631 83.8457 18.3207 83.8621 18.8897C83.8656 19.3836 83.6818 19.8602 83.3482 20.2228C83.1903 20.4093 82.9935 20.5586 82.7717 20.6599C82.55 20.7613 82.3087 20.8123 82.0651 20.8093C81.6779 20.8365 81.2956 20.7096 81.0007 20.456C80.6833 20.1118 80.4184 19.7221 80.2149 19.2996C79.906 18.6141 79.4537 18.0037 78.8887 17.51C78.3759 17.0812 77.5514 16.8668 76.4152 16.8668C75.5142 16.8211 74.6219 17.0626 73.8655 17.5566C73.5792 17.7318 73.3408 17.9758 73.1718 18.2667C73.0028 18.5576 72.9085 18.8863 72.8973 19.223C72.8889 19.6002 73.0055 19.9695 73.2289 20.2728C73.4728 20.5884 73.7816 20.8476 74.1341 21.0326C74.5037 21.2477 74.8949 21.4231 75.3012 21.5558C75.6946 21.6758 76.3445 21.8502 77.2508 22.0791C78.2932 22.3193 79.3224 22.6141 80.3343 22.9622C81.1687 23.2406 81.96 23.6355 82.6851 24.1353C83.3221 24.5879 83.8399 25.1895 84.1937 25.8883C84.5773 26.6933 84.7637 27.5789 84.7374 28.4711V28.4711Z" fill="#0077C8"/>
<path d="M88.2291 26.178V16.4433C88.2291 15.6146 88.4148 14.9936 88.7861 14.5804C88.9696 14.3752 89.1956 14.213 89.4483 14.1053C89.7009 13.9976 89.9741 13.947 90.2483 13.9572C90.5293 13.9441 90.8097 13.9931 91.0698 14.1008C91.3299 14.2084 91.5633 14.3721 91.7536 14.5804C92.125 14.9936 92.3106 15.6146 92.3106 16.4433V26.398C92.287 27.3529 92.4134 28.3055 92.6853 29.2208C92.9099 29.9465 93.3788 30.571 94.0116 30.9871C94.6526 31.407 95.55 31.617 96.7038 31.617C98.2976 31.617 99.4238 31.1915 100.082 30.3405C100.741 29.4896 101.073 28.1988 101.077 26.468V16.4433C101.077 15.6057 101.261 14.9825 101.628 14.5737C101.812 14.3696 102.039 14.2087 102.292 14.1022C102.546 13.9957 102.819 13.9462 103.093 13.9572C103.371 13.9463 103.648 13.9954 103.905 14.1012C104.163 14.207 104.394 14.367 104.585 14.5704C104.965 14.9792 105.155 15.6024 105.155 16.44V26.178C105.185 27.514 105.03 28.8476 104.695 30.1406C104.38 31.2124 103.779 32.1771 102.957 32.93C102.225 33.6114 101.352 34.1213 100.401 34.4231C99.3005 34.7514 98.1565 34.9076 97.0089 34.8863C95.6589 34.9126 94.3121 34.7431 93.0102 34.3831C91.9835 34.1001 91.0433 33.564 90.2748 32.8234C89.5394 32.0669 89.0057 31.1361 88.7231 30.1173C88.37 28.8351 88.2036 27.5082 88.2291 26.178Z" fill="#0077C8"/>
<path d="M114.893 16.4136L122.738 28.3446V16.3036C122.695 15.6799 122.874 15.0612 123.242 14.5573C123.409 14.3635 123.617 14.2101 123.852 14.1085C124.086 14.007 124.34 13.9599 124.595 13.9708C124.853 13.9599 125.11 14.0069 125.348 14.1084C125.586 14.2098 125.799 14.3632 125.971 14.5573C126.345 15.0634 126.525 15.6882 126.478 16.317V32.2205C126.478 33.9979 125.745 34.8866 124.28 34.8866C123.941 34.8917 123.605 34.8376 123.285 34.7266C122.98 34.6142 122.7 34.4433 122.459 34.2234C122.193 33.9818 121.954 33.7113 121.747 33.4169C121.526 33.1081 121.305 32.7926 121.083 32.4704L113.451 20.6828V32.5537C113.496 33.185 113.305 33.8105 112.914 34.3067C112.742 34.5002 112.53 34.6535 112.293 34.756C112.056 34.8585 111.799 34.9076 111.541 34.8999C111.28 34.9106 111.019 34.8623 110.779 34.7585C110.538 34.6547 110.324 34.498 110.152 34.3C109.773 33.801 109.588 33.1801 109.631 32.5537V16.9269C109.611 16.398 109.685 15.8697 109.85 15.3672C110.031 14.9533 110.333 14.6046 110.716 14.3674C111.103 14.1096 111.557 13.9728 112.022 13.9741C112.325 13.9629 112.626 14.0166 112.907 14.1315C113.188 14.2464 113.441 14.4199 113.65 14.6406C113.876 14.882 114.079 15.1455 114.253 15.4272L114.893 16.4136Z" fill="#0077C8"/>
</g>
<defs>
<clipPath id="clip0_238_5">
<rect width="196" height="50" fill="white"/>
</clipPath>
</defs>
</svg>
